<?xml version="1.0" encoding="utf-8"?>
<!-- Generator: Adobe Illustrator 18.1.1, SVG Export Plug-In . SVG Version: 6.00 Build 0)  -->
<svg version="1.1" id="Capa_1" xmlns="http://www.w3.org/2000/svg" xmlns:xlink="http://www.w3.org/1999/xlink" x="0px" y="0px"
	 viewBox="0 0 300 100" enable-background="new 0 0 300 100" xml:space="preserve">
<g id="Figura">
	<g>
		<path fill="#FFFFFF" d="M63.5,46.8c0.3-0.5,0.6-1,0.9-1.5c1-1.5,2.1-3.2,3.7-4.2c1.5-0.9,3.5-1,5.2-1.1c0.4,0,0.8-0.1,1.1-0.1
			c0,0,0.1,0,0.1,0c0.1,0,0.2,0,0.3,0c0.3,0,0.6-0.1,1-0.1c1.1-0.1,2.3-0.1,3.4-0.2c0.3,0,0.6,0,0.8-0.1h0c0,0,0.1,0,0.1,0
			c0.1,0,0.2-0.1,0.3-0.1c0.7-0.1,1.4-0.3,2-0.6c1.1-0.5,2.3-0.5,3.5-0.6c3.2-0.2,6.3-0.2,9.5-0.4c2-0.1,4-0.4,5.9-1
			c1.8-0.5,3.6-1.3,5.3-2c0.5-0.2,1.1-0.4,1.7-0.5c0.2,0,0.4,0,0.6,0.1c0.5,0.5,1.1,0.3,1.8,0.1c-1.3-0.3-1.4-1.3-1.3-2.2
			c0-0.6-0.1-1.2-0.3-1.9c-0.2-0.8-0.5-1.5-0.9-2.3c-0.1-0.2-0.2-0.3-0.5-0.2c-1.9,0-3.7,0.2-5.6,0c-1-0.1-2-0.1-3-0.1
			c-1.1,0-2.3-0.1-3.4-0.3c-2.5-0.6-5-0.3-7.5,0.3c-2.5,0.6-4.9,1.1-7.5,1.3c-1.7,0.1-3.3,0.3-5,0.5c-1.8,0.2-3.5,0-5.2-0.6
			c-1.1-0.4-2.3-0.8-3.5-1.1c-0.7-0.1-1-0.4-1.1-1.1c-0.1-0.6-0.2-1.3-0.4-1.9c-0.1-0.7,0-1.4,0.7-1.8c0,0,0,0,0,0
			c0.7-0.5,1.4-1,0.8-2.1c-0.1-0.3,0-0.6,0.1-1c0.2-1.2,0.3-2.4-0.3-3.5c-0.4-0.7-0.4-1.6-0.6-2.4c-0.5-2.4-2.1-3.8-4.2-4.8
			c-1.8-0.9-3.7-1.7-5.5-2.5c-2-0.8-4-0.7-5.9,0.1c-1,0.4-1.9,1.1-2.8,1.8c-0.3,0.3-0.7,0.5-1,0.8c-0.8,0.6-1.2,1.6-1.8,2.4
			c-0.3,0.4-0.4,1-0.5,1.5c-0.2,1.5-0.3,3-0.3,4.6c0,2.6-0.2,5.3-1.4,7.7c-0.9,2-2.2,3.6-4.2,4.6c-0.5,0.2-1,0.5-1.5,0.8
			c-0.5,0.3-1.1,0.4-1.8,0.5c-1.6,0.2-3,0.9-4.5,1.6c-0.8,0.4-1.6,0.8-2.5,1.2c-1.1,0.6-1.8,1.4-2.3,2.5c-0.4,1-1,2-1.7,2.8
			c-1.6,1.8-2.4,4-2.7,6.3c-0.1,1.1-0.1,2.3-0.2,3.5c-0.4,3.1,0,6.2,1.1,9.1c0.7,1.8,1.5,3.6,2.4,5.4c0.3,0.7,0.5,1.4,0.6,2.1
			c0.4,2.1,0.9,4.3,1.7,6.3c0.4,1.1,0.7,2.3,0.7,3.5c0,1.3,0.4,2.6,0.5,3.9c0,0.8-0.2,1.4-0.6,2c-1,1.6-2,3.3-2.3,5.2
			c0,0.1,0,0.3-0.1,0.4c-0.6,0.7-0.9,1.6-1,2.6c0.2,0,0.5,0,0.7,0c2.6,0.1,5.1,0.4,7.7,0.5c2.8,0,5.6-0.1,8.5,0
			c1.4,0,2.8,0.3,4.2,0.2c0.5,0,1.1,0,1.6-0.1c0.1,0,0.3,0,0.3,0c0.2,0,0.3,0,0.5,0c0.5,0,0.9-0.1,1.4-0.2c1.5-0.1,3,0,4.5,0
			c0.2,0,0.3,0,0.5,0c0,0,0.1,0,0.2,0c-0.4-1-1-1.9-1.4-2.9c0-0.2-0.1-0.3,0-0.5c0.5-0.7,0.3-1.4,0-2.1c-0.2-0.4-0.1-0.8,0.1-1.2
			c0.5-0.8,0.8-1.6,1.1-2.5c-0.1-0.4,0-0.9,0.2-1.3c0,0,0-0.1,0.1-0.2c0-0.2,0.1-0.4,0.1-0.6v0c0,0,0-0.1,0-0.1c0-0.2,0-0.5,0-0.7
			c0-0.9,0-1.8,0.1-2.6c0.1-1.2,0.4-2.3,0.6-3.5c0.2-1.1,0.3-2.3,0.5-3.4c0.1-1,0.2-2,0.6-3c0.4-1,0.9-1.9,1.3-2.9
			c0.1-0.2,0.2-0.4,0.3-0.6c0,0,0,0,0,0c0-0.1,0.1-0.2,0.1-0.3c0.2-0.5,0.3-1.1,0.4-1.6c0-0.2,0.1-0.5,0.2-0.8c-0.2-0.5-0.2-1,0-1.5
			c-0.3-0.1,0.5-0.9,0.5-1c0.1-0.6,0.3-1.3,0.4-1.9l0.4-1.7l0.4-1.5l0.4-1.5l0.4-1.2L63.5,46.8z"/>
		<path fill="#FFFFFF" d="M118.6,33.3c-0.7-0.5-1.5-0.5-2.3-0.3c-1.6,0.3-3.1,0.8-4.7,1.2c-0.1,0-0.3,0.1-0.3,0
			c-0.2-0.5-0.6-0.3-0.9-0.2c-0.4,0-0.9,0-1.1-0.5c0.7,0.2,0.2-0.4,0.4-0.4c0,0.3,0.2,0.5,0.5,0.4c0.3-0.1,0.5-0.4,0.8-0.6
			c0.2-0.3,0.3-0.6,0.1-1c-0.2-0.3-0.4,0-0.7,0c-0.1,0-0.2,0-0.4,0.1c-0.3,0.1-0.5,0-0.6-0.3c-0.3-1.4-0.8-2.7-1.4-4
			c-0.2-0.6-0.2-0.7,0.4-0.9c0.7-0.2,0.8-0.2,1,0.4c0.2,0.6,0.5,1.2,0.7,1.9c0.1,0.4,0.3,0.4,0.7,0.3c0.1,0,0.2-0.1,0.4-0.1
			c1.6-0.5,3.3-1,4.9-1.5c0.3-0.1,0.4-0.2,0.3-0.5c-0.3-0.6-0.5-1.3-0.8-2c-0.3-0.6-0.3-0.7,0.4-0.9c0.7-0.2,1.4-0.5,1.9-1.2
			c0.2-0.3,0.5-0.4,0.8-0.6c1.5-0.8,3.1-1.4,4.8-1.6c1.1-0.1,2.2-0.3,3.4,0.1c1.1,0.4,2.3,0.4,3.4,0.7c1.3,0.4,2.5,1,3.4,2.1
			c0.6,0.7,0.9,1.6,1.5,2.3c0.2,0.3,0.3,0.6,0.3,0.9c0,0.5,0,1.1-0.1,1.7c0,0.4,0,0.8-0.2,1.1c-1.1,2.4-2.7,4.3-5.5,4.7
			c-0.8,0.1-1.5,0.1-2.3-0.2c-0.2-0.1-0.4-0.2-0.6-0.2c-0.6,0-1.1-0.3-1.5-0.7c-0.4-0.3-0.7-0.7-1.1-1.1c-0.2-0.2-0.3-0.2-0.6-0.1
			c-1,0.6-2.2,0.4-3.1-0.4c-0.3-0.3-0.6-0.7-0.9-1.1c-0.1-0.1-0.2-0.4-0.4-0.3c-0.2,0.1-0.1,0.3-0.1,0.5c0.1,0.4,0.1,0.9,0,1.4
			c-0.1,0.4-0.1,0.8,0,1.2C118.9,33.4,118.7,33.4,118.6,33.3z M129,31.6c-0.7-0.2-1.3-0.5-2-0.6c-1.2-0.1-2.3-0.4-3.4-0.7
			c-1-0.3-2-0.6-3-1.2c-0.1-0.1-0.3-0.2-0.5,0c-0.1,0.2,0,0.3,0.1,0.5c0.3,0.3,0.6,0.7,0.9,1.1c0.7,0.8,1.5,1.3,2.6,1
			c1.2-0.3,2.5-0.1,3.7,0.1c0.7,0.1,1.5,0,2.2,0.1C129.6,31.6,129.3,31.7,129,31.6z"/>
		<polygon fill="#FFFFFF" points="48.2,63 49.9,61.9 51.4,61.2 53,60.6 54.8,59.3 56.3,58.4 58.1,57.4 59.8,56.7 60.6,56.2 
			61.2,55.8 61.7,54.8 63.4,54.3 64.9,53.4 67.5,51.5 68.8,50.4 70.5,48.4 71.4,46.9 71.9,45.9 72.8,44.3 74.2,43.1 74.8,42 
			76.6,40.9 78.4,40.6 79.9,41 80.8,41.5 82.3,41.6 83.1,42.1 84.6,43.5 85.5,44.2 87.2,45.4 88.2,46.5 88.6,47.8 89.1,49.4 
			88.1,51.1 87.4,52.3 86.2,53.4 85.4,54.1 83.7,55.3 82.1,56.2 79.5,57.1 78.1,57.3 76.9,58 76.4,58.5 76.3,59.8 77.4,61.3 
			77.4,62.2 76.3,63.5 75.2,64.3 74,64.9 72.8,65.4 71.5,65.8 70.4,65.4 68.9,64.5 67.6,64.8 65.6,65.1 64.5,66.1 62.2,68.1 
			60.2,69.7 57.3,71.9 54.9,73.4 52.6,74.7 50.6,75.7 48.9,76.4 		"/>
	</g>
</g>
<path id="Rojo" fill="#BF0411" d="M107.6,27l1.2,7.3l0.7,0.5l0.5,0.1l1.4-0.3l2.4-0.6l2.8-0.7h0.9l0.6,0.2l0.4,0.3l0.8,0.4
	c0,0,4.4,0,5.5-0.8l1.3,0.9c0,0,0.8,0.4,1,0.2l0.9,0.5c0,0,1.5,0,1.9,0c0.5,0,1.7-0.3,2.6-0.8c0.4-0.2,0.6-0.4,0.8-0.6
	c0.2-0.2,0.5-0.5,1-1c0.9-0.8,1.1-1.7,1.5-2.3c0.1-0.2,0.2-0.4,0.3-0.7l0.1-0.6l0.3-1.4v-1.1l-0.6-0.8l-0.6-1.1l-0.7-1l-0.8-0.9
	l-1-0.6l-0.9-0.5l-0.7-0.3l-1-0.2l-0.9-0.2l-0.7-0.1l-0.9-0.2l-0.7-0.2l-0.9-0.2l-1.3-0.1l-1.6,0.3l-1.1,0.3l-1,0.3l-1,0.4l-1,0.4
	l-0.9,0.4l-0.7,0.3l-8.5,3.8l-0.3,0l-0.4,0.1l-0.4,0.1l-0.3,0.1l-0.2,0.2l-0.1,0.2l-0.1,0.3l0.1,0.3L107.6,27z"/>
<path fill="#BF0411" d="M60.8,55.4c-1.1,0.7,4.1,10.1,4.9,10s3.1-0.6,3.1-0.6l0.9,0.6l0.6,0.3l1,0.4l0.9-0.2l0.5-0.2l0.3-0.1
	l0.3-0.2l0.5-0.3l0.3-0.1l0.5-0.3l0.4-0.2l0.4-0.3l0.5-0.3l0.4-0.2l0.4-0.5l0.5-0.6l0.3-0.4l0.1-0.4l-0.1-0.6l-0.3-0.5l-0.3-0.4
	l-0.4-0.9l0.1-0.8l0.5-0.5l0.7-0.4l0.3-0.2l1-0.1l0.4-0.1l1.2-0.4l1.4-0.5l1-0.6l0.9-0.5l0.8-0.7l0.8-0.6l1-0.8l0.7-0.6l0.2-0.2
	l0.6-1.2l0.7-1.2l0.3-0.7l-0.3-1.1l-0.5-1.9l-0.5-0.6l-0.6-0.7l-0.8-0.5L86,44.2l-0.6-0.4L84.6,43l-0.6-0.6l-0.7-0.7l-0.4-0.2
	l-0.5-0.2l-1-0.1l-0.5-0.1l-0.7-0.5l-1-0.2l-0.6-0.1l-0.9,0.1l-1.1,0.2L75.7,41l-0.8,0.5l-0.4,0.3L74,42.9L73,43.6L72.6,44
	c0,0-0.3,0.4-0.4,0.6c-0.1,0.2-0.5,1-0.5,1l-1.2,2.1l-0.3,0.5l-1.6,2l-2,1.5L64.9,53l-1.5,1l-1.8,0.5l-0.4,0.7
	C61.1,55.2,61.9,54.7,60.8,55.4z"/>
<g id="decorado">
	<g id="Capa_2">
		<g>
			<polygon fill="#FFFFFF" points="74.6,57.9 73.4,55.7 72.1,53.9 70.4,51.9 68.5,50.8 66.2,52.5 64.3,53.8 63.1,54.6 63.9,56.2 
				65.1,57.8 66.7,59.9 67.8,61.7 68.6,63.2 70.4,62.4 73.2,60.4 75.5,59.4 			"/>
			<polygon fill="#FFFFFF" points="76.6,48.6 76.2,48.1 76,47.3 75.7,46.4 75.8,45.9 76.7,45.9 77.1,46.3 77.6,47.6 77.7,48.2 
				77.5,48.8 			"/>
			<polygon fill="#FFFFFF" points="87.4,47.9 86.8,47.2 86.6,46.4 85.1,45.2 84,45 83.9,44.3 84.9,44.8 86.2,45.7 87.1,46.2 
				87.6,46.5 87.6,48 87.7,48.3 			"/>
			<polygon fill="#FFFFFF" points="107.1,27.7 107.9,26.8 108.2,27.8 108.4,28.5 108.8,29.4 109,30.1 109.2,30.7 109.4,31.4 
				109.6,31.7 110.2,31.6 111,31.4 111.1,32 110.8,32.7 110.3,33.1 109.9,33.2 109.6,32.8 109.5,33 109.4,33.3 109.1,33.3 
				109.4,33.6 109.9,33.8 110.5,33.8 111,33.9 111.2,34.1 109.9,34.3 109.1,33.9 108.7,33.5 108.5,32.7 108.6,32.1 108.1,30.7 
				107.8,29.8 107.5,28.9 107.1,28.1 			"/>
			<polygon fill="#FFFFFF" points="109.2,26.2 115.4,23.8 116.5,26.3 116.5,26.9 115.3,27.2 113.4,27.9 111.8,28.5 111,28.8 
				110.5,28.8 110,28.6 			"/>
			<polygon fill="#FFFFFF" points="120.1,29 123.5,30.2 126.2,30.9 129.4,31.9 127.4,31.8 125.4,31.5 124.3,31.5 122.8,31.8 
				121.7,31.5 121,30.6 120.4,29.9 			"/>
			<polygon fill="#FFFFFF" points="118.9,33.3 122.4,32.4 120.9,32 120.2,31.3 119.6,30.5 119.1,30.2 118.9,31.1 119,32.1 
				118.9,32.4 			"/>
			<g>
				<path fill="#FFFFFF" d="M52.7,45.9"/>
			</g>
			<g display="none">
				<path display="inline" fill="#FFFFFF" d="M67.4,40.5c-0.8-1-1.7-1.9-2.7-2.8"/>
			</g>
		</g>
		<path fill="#FFFFFF" d="M125.6,21l2.2,0.6c0,0,1.3,0,2.8,0.6c1.5,0.6,2.5,1.4,2.5,1.7c0,0.3-2.8-0.8-2.8-0.8s-1.6-0.7-2-0.7
			c-0.4,0-1.6-0.3-1.9-0.7S125.6,21,125.6,21z"/>
	</g>
</g>
<text transform="matrix(1 0 0 1 125.5885 67.8783)" fill="#FFFFFF" font-family="'Cabin-BoldItalic'" font-size="24.6977">Boxeo Absoluto</text>
<text transform="matrix(1 0 0 1 179.2257 88.9115)" fill="#FFFFFF" font-family="'Cabin-Medium'" font-size="15.0334">Noticias y análisis</text>
</svg>
