<?xml version="1.0" encoding="utf-8"?>
<!-- Generator: Adobe Illustrator 18.1.1, SVG Export Plug-In . SVG Version: 6.00 Build 0)  -->
<svg version="1.1" id="Capa_1" xmlns="http://www.w3.org/2000/svg" xmlns:xlink="http://www.w3.org/1999/xlink" x="0px" y="0px"
	 viewBox="0 0 1024 706" enable-background="new 0 0 1024 706" xml:space="preserve">
<circle fill="#FFFFFF" stroke="#EEEEEE" stroke-width="0.9247" stroke-miterlimit="10" cx="512" cy="353" r="324.8"/>
<g>
	<path fill="#EEEEEE" d="M728.5,216.5c-14.1,9.4-32.9,14.1-51.8,14.1c18.8-9.4,32.9-28.2,37.7-51.8c-18.8,9.4-37.7,18.8-56.5,23.5
		c-14.1-14.1-37.7-28.2-61.2-28.2c-47.1,0-89.4,42.4-89.4,89.4c0,4.7,0,14.1,0,18.8c-75.3-4.7-141.2-37.7-183.6-94.1
		c-4.7,18.8-9.4,32.9-9.4,47.1c0,32.9,14.1,56.5,37.7,75.3c-14.1,0-28.2-4.7-42.4-9.4l0,0c0,42.4,32.9,80,70.6,89.4
		c-9.4,0-14.1,4.7-23.5,4.7c-4.7,0-9.4,0-18.8,0c9.4,37.7,42.4,61.2,84.7,61.2c-32.9,23.5-70.6,37.7-113,37.7c-9.4,0-14.1,0-23.5,0
		c37.7,23.5,84.7,42.4,136.5,42.4c164.7,0,254.2-136.5,254.2-254.2c0-4.7,0-9.4,0-9.4C705,249.5,719.1,235.3,728.5,216.5
		L728.5,216.5z"/>
</g>
</svg>
