<?xml version="1.0" encoding="utf-8"?>
<!-- Generator: Adobe Illustrator 18.1.1, SVG Export Plug-In . SVG Version: 6.00 Build 0)  -->
<svg version="1.1" id="Capa_1" xmlns="http://www.w3.org/2000/svg" xmlns:xlink="http://www.w3.org/1999/xlink" x="0px" y="0px"
	 viewBox="0 0 15 15" enable-background="new 0 0 15 15" xml:space="preserve">
<circle fill="#339DC3" cx="7.5" cy="7.5" r="7.5"/>
<g>
	<path fill="#F1F2F2" d="M12.1,4.6c-0.3,0.2-0.7,0.3-1.1,0.3c0.4-0.2,0.7-0.6,0.8-1.1c-0.4,0.2-0.8,0.4-1.2,0.5
		C10.3,4,9.8,3.7,9.3,3.7c-1,0-1.9,0.9-1.9,1.9c0,0.1,0,0.3,0,0.4c-1.6-0.1-3-0.8-3.9-2C3.4,4.4,3.3,4.7,3.3,5
		c0,0.7,0.3,1.2,0.8,1.6c-0.3,0-0.6-0.1-0.9-0.2c0,0,0,0,0,0c0,0.9,0.7,1.7,1.5,1.9c-0.2,0-0.3,0.1-0.5,0.1c-0.1,0-0.2,0-0.4,0
		c0.2,0.8,0.9,1.3,1.8,1.3c-0.7,0.5-1.5,0.8-2.4,0.8c-0.2,0-0.3,0-0.5,0c0.8,0.5,1.8,0.9,2.9,0.9c3.5,0,5.4-2.9,5.4-5.4
		c0-0.1,0-0.2,0-0.2C11.6,5.3,11.9,5,12.1,4.6L12.1,4.6z M12.1,4.6"/>
</g>
</svg>
